<?xml version="1.0" encoding="utf-8"?>
<!-- Generator: Adobe Illustrator 22.1.0, SVG Export Plug-In . SVG Version: 6.00 Build 0)  -->
<svg version="1.1" id="Слой_1" xmlns="http://www.w3.org/2000/svg" xmlns:xlink="http://www.w3.org/1999/xlink" x="0px" y="0px"
	 viewBox="0 0 29 17" style="enable-background:new 0 0 29 17;" xml:space="preserve">
<style type="text/css">
	.st0{fill:#242424;}
</style>
<path id="_x33_D" class="st0" d="M0,11.1c0.2,2.1,1.2,3.5,2,4.2C3.3,16.6,5,17,6.5,17c2.3,0,3.9-0.9,4.7-1.7
	c0.7-0.7,1.4-1.8,1.4-3.6c0-0.9-0.2-1.7-0.7-2.4C11.6,8.8,11,8.2,10,7.8c0.6-0.3,0.9-0.7,1.2-1.2c0.4-0.7,0.5-1.3,0.5-2
	c0-1.2-0.5-2.3-1.3-3.1C9.3,0.2,7.7,0,6.5,0C5,0,3.5,0.3,2.4,1.6c-0.7,0.7-1.4,2-1.5,3.7h3.8c0-0.5,0.2-1.1,0.5-1.4
	c0.2-0.2,0.6-0.4,1.1-0.4c0.4,0,0.9,0.2,1.2,0.4c0.2,0.2,0.4,0.7,0.4,1.2c0,0.4-0.1,0.8-0.5,1.1C7,6.5,6.5,6.8,5.7,6.6v2.9
	c0.2-0.1,0.4-0.1,0.7-0.1c0.5,0,1.1,0.1,1.5,0.5c0.3,0.2,0.6,0.7,0.6,1.4c0,0.5-0.1,0.9-0.5,1.3c-0.3,0.3-0.8,0.7-1.6,0.7
	c-0.7,0-1.3-0.2-1.6-0.6c-0.4-0.4-0.6-1-0.6-1.6H0z M20.9,16.6h-5.7V0.4h5.4c1.6,0,4.2,0.2,6.3,2.2C28.6,4.4,29,6.8,29,8.5
	c0,2.1-0.5,4-2.1,5.6C25.7,15.5,23.6,16.6,20.9,16.6z M19.3,4V13h0.8c1,0,2.4-0.1,3.5-1.2c0.5-0.5,1.2-1.5,1.2-3.3
	c0-1.5-0.4-2.8-1.2-3.6c-1-0.9-2.2-1-3.3-1H19.3z"/>
</svg>
