<svg width="30" height="17" viewBox="0 0 30 17" fill="none" xmlns="http://www.w3.org/2000/svg">
<path d="M15 0.5H19.1V7.2L24.1 0.5H29.2L22.9 8.1L29.8 16.6H24.5L19.1 9.6V16.6H15V0.5Z" fill="#242424"/>
<path d="M5.852 16.418C8.932 16.418 11.704 14.834 11.704 11.556C11.704 9.73001 10.472 8.30001 8.91 7.86001V7.79401C10.296 7.33201 11.286 6.10001 11.286 4.38401C11.286 1.50201 8.712 0.00601196 5.852 0.00601196C2.97 0.00601196 0.418 1.56801 0.418 4.45001C0.418 6.16601 1.452 7.31001 2.794 7.81601V7.86001C1.276 8.34401 0 9.68601 0 11.578C0 14.856 2.772 16.418 5.852 16.418ZM5.852 6.49601C4.708 6.49601 4.004 5.63801 4.004 4.64801C4.004 3.63601 4.752 2.86601 5.852 2.86601C6.886 2.86601 7.722 3.63601 7.722 4.64801C7.722 5.63801 6.93 6.49601 5.852 6.49601ZM5.852 13.492C4.576 13.492 3.674 12.678 3.674 11.424C3.674 10.214 4.576 9.31201 5.852 9.31201C7.106 9.31201 8.008 10.236 8.008 11.424C8.008 12.678 7.128 13.492 5.852 13.492Z" fill="#242424"/>
</svg>
