<?xml version="1.0" encoding="utf-8"?>
<!-- Generator: Adobe Illustrator 22.1.0, SVG Export Plug-In . SVG Version: 6.00 Build 0)  -->
<svg version="1.1" id="Слой_1" xmlns="http://www.w3.org/2000/svg" xmlns:xlink="http://www.w3.org/1999/xlink" x="0px" y="0px"
	 viewBox="0 0 188 20" style="enable-background:new 0 0 188 20;" xml:space="preserve">
<style type="text/css">
	.st0{fill:#242424;}
	.st1{fill:#333333;}
	.st2{font-family:'AvenirNext-Medium';}
	.st3{font-size:2.3912px;}
</style>
<path id="logo.atmos" class="st0" d="M115.8,12.2h5.6l-2-5.8c-0.4-1.1-0.5-1.7-0.8-2.5h0c-0.3,0.8-0.4,1.4-0.8,2.5L115.8,12.2z
	 M122,13.8h-6.7l-1.3,3.8h-2.1l5.5-15.5h2.6l5.5,15.5h-2.1L122,13.8z M131.1,17.7h-2.1V3.8h-4.6V2.2h11.2v1.6h-4.6V17.7z M150.2,2.2
	h2.7v15.5h-2.1v-4.3c0-2.7,0.1-5.9,0.1-8.6h-0.1c-0.6,1.3-1,2.3-1.6,3.5l-3.1,6.2h-1.6l-3.1-6.2c-0.6-1.2-1-2.2-1.6-3.5h-0.1
	c0,2.7,0.1,5.9,0.1,8.6v4.3h-2.1V2.2h2.7l4.8,9.5h0.1L150.2,2.2z M162.4,17.9c-5.1,0-6.6-3-6.6-8c0-5,1.4-8,6.6-8c5.1,0,6.6,3,6.6,8
	C169,14.9,167.6,17.9,162.4,17.9z M180,13.4c0-2.5-1.7-2.6-3.9-2.7c-2.7-0.1-4.9-1-4.9-4.3c0-3.5,2.9-4.4,5.9-4.4
	c0.8,0,2.6,0.1,3.8,0.5v1.7c-1.5-0.5-2.9-0.5-3.9-0.5c-2.3,0-3.6,0.9-3.6,2.5c0,2.4,1.7,2.3,3.8,2.4c2.5,0.2,5,0.8,5,4.5
	c0,3.7-3.2,4.8-6.3,4.8c-0.8,0-3.2-0.1-4.5-0.6v-1.8c1.5,0.5,3.6,0.6,4.5,0.6C178.9,16.1,180,15,180,13.4z M0.4,19.9V0h28.6v19.9
	H0.4z M103.4,2.2h3.3c-0.7,1.2-5.4,9.8-5.4,9.8s0,4.9,0,5.7h-3.7c0-0.8,0-5.7,0-5.7S93,3.4,92.4,2.2h3.5l3.7,7L103.4,2.2z M63.1,3
	c1.3,0.9,2,2.4,2,4.5v4.9c0,2.2-0.7,3.7-2,4.5c-1,0.7-2.7,1.1-5.2,1.1c-2.5,0-4.2-0.3-5.2-1.1c-1.3-0.8-1.9-2.3-1.9-4.5V7.6
	c0-2.2,0.6-3.7,1.9-4.5c1.3-0.8,2.9-1.1,5.2-1.1C60.2,1.9,62,2.3,63.1,3z M42.4,2.2c4.4,0,6.1,1.7,6.1,5.9v3.4
	c0,4.5-1.5,6.2-5.6,6.2h-8.3V2.2H42.4z M71.1,2.2v12.9h6.4v2.6h-9.9V2.2H71.1z M87.9,9.5c3.4-0.1,4.2,2,4.2,4.1c0,1.8-1,2.9-1.7,3.4
	c-0.4,0.3-1.4,0.7-3.6,0.7h-7.3V2.2h7.2c1.6,0,2.4,0.3,3.1,0.7c0.8,0.5,1.5,1.4,1.5,3.1C91.2,7.9,90.6,9.2,87.9,9.5z M162.4,16.2
	c3.5,0,4.4-2,4.4-6.3c0-4.3-1-6.3-4.4-6.3s-4.4,2-4.4,6.3C158,14.2,159,16.2,162.4,16.2z M25.6,17.3V2.6h-3.3
	c-3.4,0-6.2,3.4-6.2,7.3c0,4.1,2.8,7.4,6.2,7.4H25.6z M7,17.3c3.4,0,6.2-3.3,6.2-7.4c0-4-2.8-7.3-6.2-7.3H3.8v14.7H7z M61.5,12.2
	V7.6c0-2.7-1-3.3-3.6-3.3c-2.7,0-3.6,0.6-3.6,3.3v4.6c0,2.7,1,3.4,3.6,3.4C60.6,15.6,61.5,15,61.5,12.2z M45,11.9V7.7
	c0-2.5-1.4-3.2-2.7-3.2h-4.3v10.8h4.3C43.6,15.3,45,14.6,45,11.9z M86,15.4c2.1,0,2.9-1.4,2.9-2.6c0-2.5-1.9-2.3-4.3-2.3
	c0-0.4,0-1.5,0-1.8c2.7-0.1,3.6-0.1,3.6-2.1c0-1.3-0.7-2.2-1.9-2.2h-3.4v11H86z"/>
<text transform="matrix(1 0 0 1 184 3)" class="st1 st2 st3">TM</text>
</svg>
