<?xml version="1.0" encoding="utf-8"?>
<!-- Generator: Adobe Illustrator 22.1.0, SVG Export Plug-In . SVG Version: 6.00 Build 0)  -->
<svg version="1.1" id="Слой_1" xmlns="http://www.w3.org/2000/svg" xmlns:xlink="http://www.w3.org/1999/xlink" x="0px" y="0px"
	 viewBox="0 0 107 20" style="enable-background:new 0 0 107 20;" xml:space="preserve">
<style type="text/css">
	.st0{fill:#242424;}
</style>
<path id="logo.atmos" class="st0" d="M0.5,19.9V0h28.6v19.9H0.5z M99.7,9.2l3.9-7h3.3c-0.7,1.2-5.4,9.8-5.4,9.8s0,4.9,0,5.7h-3.7
	c0-0.8,0-5.7,0-5.7s-4.6-8.6-5.2-9.8H96L99.7,9.2z M58,1.9c2.3,0,4.1,0.4,5.2,1.1c1.3,0.9,2,2.4,2,4.5v4.9c0,2.2-0.7,3.7-2,4.5
	c-1,0.7-2.7,1.1-5.2,1.1c-2.5,0-4.2-0.3-5.2-1.1c-1.3-0.8-1.9-2.3-1.9-4.5V7.6c0-2.2,0.6-3.7,1.9-4.5C54.1,2.2,55.8,1.9,58,1.9z
	 M34.8,2.2h7.7c4.4,0,6.1,1.7,6.1,5.9v3.4c0,4.5-1.5,6.2-5.6,6.2h-8.3V2.2z M67.7,2.2h3.5v12.9h6.4v2.6h-9.9V2.2z M91.4,5.9
	c0,1.9-0.6,3.3-3.3,3.5c3.4-0.1,4.2,2,4.2,4.1c0,1.8-1,2.9-1.7,3.4c-0.4,0.3-1.4,0.7-3.6,0.7h-7.3V2.2h7.2c1.6,0,2.4,0.3,3.1,0.7
	C90.7,3.4,91.4,4.2,91.4,5.9z M25.7,17.3V2.6h-3.3c-3.4,0-6.2,3.4-6.2,7.3c0,4.1,2.8,7.4,6.2,7.4H25.7z M7.2,17.3
	c3.4,0,6.2-3.3,6.2-7.4c0-4-2.8-7.3-6.2-7.3H3.9v14.7H7.2z M58,15.6c2.7,0,3.6-0.6,3.6-3.4V7.6c0-2.7-1-3.3-3.6-3.3
	c-2.7,0-3.6,0.6-3.6,3.3v4.6C54.4,15,55.3,15.6,58,15.6z M42.5,15.3c1.2,0,2.7-0.7,2.7-3.4V7.7c0-2.5-1.4-3.2-2.7-3.2h-4.3v10.8
	H42.5z M83.1,15.4h3.2c2.1,0,2.9-1.4,2.9-2.6c0-2.5-1.9-2.3-4.3-2.3c0-0.4,0-1.5,0-1.8c2.7-0.1,3.6-0.1,3.6-2.1
	c0-1.3-0.7-2.2-1.9-2.2h-3.4V15.4z"/>
<g id="Group-31" transform="translate(104.000000, 15.000000)">
	<path id="Rectangle-10-Copy" d="M1.5,0.2c-0.7,0-1.3,0.6-1.3,1.3s0.6,1.3,1.3,1.3s1.3-0.6,1.3-1.3S2.2,0.2,1.5,0.2z M1.5,0
		C2.3,0,3,0.7,3,1.5S2.3,3,1.5,3S0,2.3,0,1.5S0.7,0,1.5,0z"/>
	<path id="R-Copy" d="M1.3,2.3H1V0.5h0.6c0.1,0,0.2,0,0.2,0c0.1,0,0.1,0,0.2,0.1c0.1,0,0.1,0.1,0.1,0.2c0,0.1,0.1,0.1,0.1,0.2
		c0,0.1,0,0.2-0.1,0.3C2,1.4,1.9,1.4,1.8,1.5l0.5,0.8H2L1.5,1.5H1.3V2.3z M1.3,1.3h0.3c0.1,0,0.1,0,0.2,0c0.1,0,0.1,0,0.1,0
		c0,0,0.1-0.1,0.1-0.1c0,0,0-0.1,0-0.1s0-0.1,0-0.1c0,0-0.1-0.1-0.1-0.1c0,0-0.1,0-0.1,0c0,0-0.1,0-0.2,0H1.3V1.3z"/>
</g>
</svg>
