<?xml version="1.0" encoding="utf-8"?>
<!-- Generator: Adobe Illustrator 22.1.0, SVG Export Plug-In . SVG Version: 6.00 Build 0)  -->
<svg version="1.1" id="Слой_1" xmlns="http://www.w3.org/2000/svg" xmlns:xlink="http://www.w3.org/1999/xlink" x="0px" y="0px"
	 viewBox="0 0 76 18" style="enable-background:new 0 0 76 18;" xml:space="preserve">
<style type="text/css">
	.st0{fill:#242424;}
</style>
<path id="Full-HD" class="st0" d="M9.2,1.5H0v16.1h4.2v-6.3h4.6V7.7H4.2V5.1h5V1.5z M11.3,6.8v6.8c0,1,0.2,2,1,2.9
	c1.3,1.4,3.2,1.5,4.8,1.5c1.5,0,3.3-0.1,4.6-1.5c1-1,1-2,1-2.9V6.8H19v6c0,0.5-0.1,1-0.6,1.5c-0.4,0.4-0.9,0.5-1.4,0.5
	c-0.5,0-1-0.1-1.3-0.4c-0.5-0.5-0.6-1.1-0.6-1.6v-6H11.3z M25.4,0v17.6h3.8V0H25.4z M31.9,0v17.6h3.8V0H31.9z M48.4,1.5h-4.2v16.1
	h4.2v-6.5h6v6.5h4.2V1.5h-4.2v6h-6V1.5z M67.8,17.6H62V1.5h5.4c1.6,0,4.3,0.2,6.4,2.2C75.6,5.5,76,7.9,76,9.6c0,2.1-0.5,4-2.1,5.6
	C72.6,16.5,70.5,17.6,67.8,17.6z M66.1,5.1v9H67c1,0,2.4-0.1,3.5-1.2c0.5-0.5,1.2-1.5,1.2-3.3c0-1.5-0.5-2.8-1.2-3.5
	c-1-0.9-2.3-1-3.3-1H66.1z"/>
</svg>
