<?xml version="1.0" encoding="utf-8"?>
<!-- Generator: Adobe Illustrator 22.1.0, SVG Export Plug-In . SVG Version: 6.00 Build 0)  -->
<svg version="1.1" id="Слой_1" xmlns="http://www.w3.org/2000/svg" xmlns:xlink="http://www.w3.org/1999/xlink" x="0px" y="0px"
	 viewBox="0 0 67 36" style="enable-background:new 0 0 67 36;" xml:space="preserve">
<style type="text/css">
	.st0{fill:url(#Rectangle-2-Copy_1_);}
	.st1{fill:#242424;}
</style>
<linearGradient id="Rectangle-2-Copy_1_" gradientUnits="userSpaceOnUse" x1="-638.8134" y1="392.8611" x2="-638.8134" y2="391.8611" gradientTransform="matrix(67 0 0 -36 42834 14143)">
	<stop  offset="0" style="stop-color:#FFEA60"/>
	<stop  offset="1" style="stop-color:#EFA71A"/>
</linearGradient>
<path id="Rectangle-2-Copy" class="st0" d="M6.3,0h54.4c1.7,0,2.6,0.2,3.6,0.7c0.9,0.5,1.6,1.2,2.1,2.1c0.5,1,0.7,1.9,0.7,3.6v23.3
	c0,1.7-0.2,2.6-0.7,3.6c-0.5,0.9-1.2,1.6-2.1,2.1c-0.9,0.5-1.9,0.7-3.6,0.7H6.3c-1.7,0-2.6-0.2-3.6-0.7c-0.9-0.5-1.6-1.2-2.1-2.1
	c-0.5-1-0.7-1.9-0.7-3.6V6.3c0-1.7,0.2-2.6,0.7-3.6c0.5-0.9,1.2-1.6,2.1-2.1C3.7,0.2,4.6,0,6.3,0z"/>
<path class="st1" d="M14.1,10H10v16h4.1v-6.5H20V26h4.1V10H20v6h-5.9V10z M33.2,26h-5.7V10h5.4c1.6,0,4.2,0.2,6.3,2.2
	c1.8,1.8,2.2,4.1,2.2,5.8c0,2.1-0.5,4-2.1,5.5C38,24.8,35.9,26,33.2,26z M31.5,13.5v8.9h0.8c1,0,2.4-0.1,3.5-1.2
	c0.5-0.5,1.2-1.5,1.2-3.3c0-1.5-0.4-2.8-1.2-3.5c-1-0.9-2.2-1-3.3-1H31.5z M43.9,10h6.4c1.2,0,2.7,0.2,3.9,1.4
	c0.9,0.9,1.3,2.3,1.3,3.6c0,1.4-0.5,2.6-1.3,3.3c-0.6,0.6-1.4,1-2.2,1.1L57,26h-5.1L48,19.9V26h-4.1V10z M48,13.2v4h0.8
	c0.6,0,1.5-0.2,2-0.6c0.3-0.3,0.5-0.8,0.5-1.3c0-0.5-0.2-1-0.5-1.3c-0.4-0.4-1.1-0.6-2-0.6H48z"/>
</svg>
