<svg width="79" height="62" fill="none" xmlns="http://www.w3.org/2000/svg"><path opacity=".01" d="M72.438 61.648c3.93-6.235 6.209-13.656 6.209-21.62C78.647 17.92 61.083 0 39.417 0 17.751 0 .187 17.921.187 40.028c0 7.962 2.279 15.38 6.207 21.615 12.476.077 57.744.005 66.044.005z" fill="#25213F"/><path fill-rule="evenodd" clip-rule="evenodd" d="M67.43 56.077a32.579 32.579 0 003.756-15.251c0-17.767-14.092-32.17-31.475-32.17-17.383 0-31.475 14.403-31.475 32.17a32.61 32.61 0 003.279 14.312l16.426-17.962a2.312 2.312 0 011.593-.758l.525-.027a2.304 2.304 0 001.534-.697l5.136-5.455a4.004 4.004 0 015.777-.085l1.36 1.363a2.507 2.507 0 001.426.713 2.498 2.498 0 011.443.73l3.93 4.017a6.732 6.732 0 002.423 1.589 6.737 6.737 0 013.002 2.26l11.34 15.251zM26.593 19.033a2.602 2.602 0 00-.275-.31 3.652 3.652 0 00-1.008-.666c-.49-.224-1.094-.336-1.814-.336-.967 0-1.788.218-2.463.655a5.183 5.183 0 00-1.62 1.638 6.52 6.52 0 00-.843 2.13 7.611 7.611 0 00-.16 2.129c.05.655.196 1.201.438 1.638.242.437.56.655.953.655a.55.55 0 00.439-.198.627.627 0 00.16-.44c-.006-.16-.084-.307-.236-.44-.152-.131-.402-.198-.75-.198a.87.87 0 01.353-.733 1.32 1.32 0 01.785-.275c.287-.006.548.083.784.267.237.184.355.483.355.896 0 .276-.062.526-.186.75a1.912 1.912 0 01-.49.578 2.383 2.383 0 01-.69.38 2.348 2.348 0 01-.794.138c-.663 0-1.212-.147-1.645-.44a2.639 2.639 0 01-.961-1.164c-.209-.483-.31-1.035-.304-1.655.006-.62.112-1.25.32-1.888a7.808 7.808 0 01.929-1.888 7.307 7.307 0 013.56-2.82c.77-.292 1.627-.44 2.572-.44 1.26 0 2.264.188 3.012.561.748.374 1.29.843 1.628 1.406a3.18 3.18 0 01.455 1.836 4.214 4.214 0 01-.514 1.837 4.11 4.11 0 01-1.265 1.405 3.061 3.061 0 01-1.797.56 3.37 3.37 0 01-1.082-.166l-.163.609c-.315 1.186-.598 2.253-1.104 3.063-1.185 1.899-4.189 3.151-6.086 2.626-1.897-.525-2.411-2.343-1.897-3.232.514-.888 1.418-.202 1.418.4 0 .386-.297.578-.508.666a.348.348 0 00-.209.322c0 .457.216.89.59 1.14.406.275.96.462 1.712.462 2.846 0 4.842-5.292 5.237-6.544.396-1.252 1.166-2.99 2.905-4-.854 1.25-1.339 2.565-1.705 3.81.177.083.34.143.487.18.157.04.31.06.456.06.382 0 .714-.16.995-.482.28-.321.486-.724.616-1.207a4.18 4.18 0 00.1-1.56 3.416 3.416 0 00-.48-1.42 2.468 2.468 0 00-.144-.207l-.066-.088zm4.532 4.985c.138-.475.287-.98.445-1.516a2.051 2.051 0 00-1.091-.167c-.4.04-.802.167-1.202.38-.4.212-.78.508-1.135.887a4.62 4.62 0 00-.876 1.373 7.495 7.495 0 00-.467 1.38c-.084.394-.112.72-.082.978s.109.45.238.577a.65.65 0 00.474.19c.267 0 .54-.08.817-.236.276-.157.519-.346.727-.569.02.324.108.539.267.645a.89.89 0 00.505.16c.128 0 .274-.031.437-.092.164-.06.332-.16.505-.296.144-.114.284-.256.418-.426l-.251.858h1.35l1.306-4.49c.04.324.136.564.29.72a.706.706 0 00.578.213c.233-.015.498-.116.794-.303.116-.073.234-.161.353-.265a4.902 4.902 0 00-.532.956 7.48 7.48 0 00-.468 1.38c-.084.394-.111.72-.082.978.03.258.11.45.238.577a.65.65 0 00.475.19c.267 0 .539-.08.816-.236.277-.157.52-.346.727-.569.02.324.109.539.267.645.159.106.327.16.505.16.129 0 .275-.031.438-.092.163-.06.331-.16.504-.296a2.51 2.51 0 00.394-.395l-.24.828h1.335l1.172-4.004c.11-.202.213-.374.312-.516.099-.142.203-.207.312-.197.039.01.069.025.089.045.02.02.027.06.022.122-.005.06-.023.149-.052.265a13.966 13.966 0 01-.21.733v.001l-.042.138c-.05.162-.101.342-.156.539-.054.197-.113.402-.178.614a32.43 32.43 0 00-.185.637 67.264 67.264 0 00-.46 1.578h1.335l1.114-3.762.044-.152c.109-.212.215-.391.319-.538.104-.147.2-.22.29-.22.078 0 .11.066.096.197a3.094 3.094 0 01-.126.531 14.6 14.6 0 01-.26.75c-.104.279-.203.565-.297.858-.094.293-.17.579-.23.857s-.081.528-.067.75c.015.223.08.4.193.531.114.132.3.197.557.197.128 0 .274-.03.438-.09.163-.061.328-.16.497-.296a2.997 2.997 0 00.665-.786c.013.112.034.217.065.316.079.258.222.46.43.606.208.147.5.22.876.22.267 0 .539-.073.816-.22a3.24 3.24 0 00.794-.607c.252-.257.482-.56.69-.91.208-.349.371-.72.49-1.114.108-.395.183-.767.222-1.116a2.22 2.22 0 00-.06-.91 1.123 1.123 0 00-.43-.607c-.208-.146-.5-.22-.875-.22a1.81 1.81 0 00-.839.22 3.183 3.183 0 00-.8.607 4.608 4.608 0 00-.684.91c-.203.35-.359.721-.467 1.116a7.275 7.275 0 00-.233 1.214c-.114.238-.247.399-.4.484-.164.091-.3.137-.409.137-.148 0-.203-.116-.163-.35.04-.232.12-.52.245-.864l.408-1.13c.148-.41.254-.786.319-1.13.064-.343.06-.631-.015-.864-.074-.233-.27-.35-.586-.35-.238 0-.465.084-.683.251a3.317 3.317 0 00-.623.645c.02-.354-.035-.592-.163-.713a.685.685 0 00-.49-.182c-.208 0-.408.063-.601.19-.193.126-.374.29-.542.492l.208-.682h-1.35l-1.22 4.202c-.1.168-.214.291-.343.37-.174.107-.314.145-.423.114-.08-.02-.134-.083-.164-.19-.03-.105.015-.35.134-.735l.267-.903c.119-.399.237-.801.356-1.206l.445-1.516a2.051 2.051 0 00-1.09-.167c-.401.04-.802.167-1.203.38a4.267 4.267 0 00-1.004.752 1.303 1.303 0 01-.367.088.588.588 0 01-.415-.106c-.119-.086-.206-.227-.26-.424-.054-.198-.052-.478.007-.842l-1.276.864.208-.682h-1.35l-1.212 4.137a1.1 1.1 0 01-.38.437c-.173.106-.314.143-.423.113-.08-.02-.134-.083-.163-.19-.03-.105.015-.35.133-.735l.267-.903c.12-.399.238-.801.357-1.206zm-2.102 2.61a4.44 4.44 0 01.133-.5l.876-2.988a.55.55 0 00-.178-.03c-.158 0-.322.093-.49.28a3.365 3.365 0 00-.475.713 8.753 8.753 0 00-.408.925 5.545 5.545 0 00-.267.926 2.32 2.32 0 00-.044.713c.024.187.101.28.23.28a.62.62 0 00.326-.113 4.45 4.45 0 00.297-.206zm7.85-.5a4.05 4.05 0 00-.133.5c-.08.061-.179.13-.297.206a.62.62 0 01-.327.114c-.128 0-.205-.094-.23-.281a2.326 2.326 0 01.045-.713 5.5 5.5 0 01.267-.925c.123-.329.26-.637.408-.926a3.33 3.33 0 01.475-.713c.168-.187.331-.28.49-.28.059 0 .118.01.178.03l-.876 2.988zm9.832 1.305c.119 0 .245-.106.379-.319.133-.212.264-.48.393-.804.128-.323.245-.67.349-1.039.104-.369.18-.715.23-1.039a3.4 3.4 0 00.044-.804c-.02-.212-.094-.318-.222-.318-.129 0-.263.106-.4.318-.14.213-.27.48-.394.804-.124.324-.233.67-.327 1.04a9.42 9.42 0 00-.207 1.038 3.61 3.61 0 00-.037.804c.02.213.083.319.192.319zm5.889-.843c.02-.116.06-.27.119-.463a310.826 310.826 0 01.653-2.184c.148-.485.306-1.01.475-1.577h-1.336l-1.143 3.762-.03.106c-.078.202-.175.39-.289.56-.114.173-.2.259-.26.259-.05 0-.086-.058-.11-.175-.026-.116.021-.366.14-.75.06-.203.149-.511.267-.926.12-.414.243-.834.371-1.259.139-.485.292-1.011.46-1.577h-1.335l-1.113 3.762c-.119.404-.178.735-.178.993s.034.457.103.6c.07.14.166.24.29.295a.88.88 0 00.987-.16c.178-.161.35-.399.52-.712 0 .192.019.348.058.47a.69.69 0 00.171.288c.074.07.158.121.252.152a.94.94 0 00.29.045c.138 0 .29-.03.452-.09.164-.061.33-.16.498-.297a2.77 2.77 0 00.386-.39l-.241.823h1.35l.935-3.185c.07-.172.144-.35.223-.531.079-.182.158-.346.237-.493.08-.146.163-.268.252-.364.09-.096.173-.144.253-.144.108 0 .133.116.074.349-.06.232-.151.52-.275.864a78.64 78.64 0 00-.393 1.123 6.229 6.229 0 00-.282 1.122c-.05.344-.03.632.06.865.089.232.301.348.638.348.128 0 .274-.03.438-.09.163-.061.331-.16.504-.296.173-.137.339-.314.497-.531a2.84 2.84 0 00.129-.194c.009.171.037.324.084.46.154.434.453.651.898.651.277 0 .55-.126.816-.379a5.29 5.29 0 00.75-.902c.232-.35.438-.713.616-1.093.178-.379.311-.69.4-.933h-.237a12.9 12.9 0 01-.735 1.358 5.005 5.005 0 01-.504.675c-.173.192-.334.288-.483.288-.158 0-.24-.129-.244-.387-.005-.257.076-.644.245-1.16l.727-2.457h1.127v-.683h-.934c.098-.323.19-.634.274-.932.084-.299.16-.564.23-.797l.223-.758h-1.336l-.742 2.487h-.742v.683h.534l-.742 2.457a5.527 5.527 0 00-.206.942c-.107.196-.233.332-.378.408-.173.091-.299.137-.378.137-.158 0-.218-.116-.178-.35.04-.232.12-.52.245-.864l.408-1.13a7.99 7.99 0 00.326-1.13c.07-.343.067-.631-.007-.864-.074-.233-.27-.35-.586-.35-.258 0-.497.09-.72.266a3.246 3.246 0 00-.63.69l.281-.955h-1.35l-1.227 4.188a1.057 1.057 0 01-.35.385c-.174.106-.305.143-.394.113A.317.317 0 0152.66 27c-.035-.025-.06-.07-.075-.136a.734.734 0 01.008-.273z" fill="#25213F"/><path d="M35.733 2.084l.723 1.66 1.768-.19-1.32 1.216.722 1.66-1.54-.909-1.32 1.216.37-1.777-1.54-.909 1.768-.19.37-1.777zm-7.164 1.491l1.02 1.489 1.7-.532-1.07 1.451 1.02 1.489-1.681-.592-1.07 1.451.03-1.816-1.68-.592 1.7-.531.031-1.817zm-6.742 2.854l1.279 1.262 1.57-.853-.78 1.633 1.28 1.262-1.761-.253-.78 1.633-.308-1.79-1.76-.252 1.57-.853-.31-1.79zm-6.094 4.123l1.49.99 1.382-1.144-.46 1.755 1.491.99-1.775.095-.46 1.755-.637-1.696-1.776.095 1.382-1.143-.637-1.697zm-5.212 5.234l1.648.681 1.143-1.392-.124 1.813 1.648.68-1.725.44-.123 1.812-.943-1.54-1.725.44 1.143-1.393-.942-1.54zm-4.138 6.156l1.745.346.862-1.589.216 1.804 1.745.346-1.61.768.216 1.804-1.212-1.33-1.612.769.862-1.59-1.212-1.328zM3.46 28.789h1.78l.549-1.729.55 1.729h1.777l-1.438 1.068.55 1.728-1.439-1.068-1.438 1.068.55-1.728-1.44-1.068zm-1.564 7.289l1.746-.347.216-1.803.862 1.589 1.745-.347-1.212 1.33.862 1.588-1.612-.768-1.212 1.33.217-1.804-1.612-.768zm-.201 7.466l1.649-.68-.124-1.813 1.142 1.392 1.649-.681-.942 1.54 1.142 1.393-1.725-.44-.942 1.541-.124-1.813-1.725-.44zm1.201 7.365l1.491-.99-.46-1.755 1.382 1.144 1.49-.99-.636 1.696 1.381 1.144-1.775-.095-.637 1.696-.46-1.755-1.776-.095zm2.561 6.994l1.279-1.262-.78-1.633 1.57.853 1.28-1.262-.31 1.789 1.57.853-1.76.253-.31 1.79-.779-1.634-1.76.253zM43.12 2.084l-.723 1.66-1.768-.19L41.95 4.77l-.723 1.66 1.54-.909 1.32 1.216-.37-1.777 1.54-.909-1.767-.19-.37-1.777zm7.166 1.491l-1.02 1.489-1.7-.532 1.07 1.451-1.02 1.489 1.681-.592 1.07 1.451-.03-1.816 1.68-.592-1.7-.531-.031-1.817zm6.742 2.854l-1.28 1.262-1.569-.853.78 1.633-1.28 1.262 1.761-.253.78 1.633.308-1.79 1.76-.252-1.57-.853.31-1.79zm6.098 4.123l-1.491.99-1.381-1.144.46 1.755-1.491.99 1.775.095.46 1.755.637-1.696 1.776.095-1.382-1.143.637-1.697zm5.213 5.234l-1.648.681-1.143-1.392.124 1.813-1.649.68 1.725.44.124 1.812.942-1.54 1.726.44-1.143-1.393.942-1.54zm4.131 6.156l-1.744.346-.862-1.589-.217 1.804-1.745.346 1.611.768-.216 1.804 1.212-1.33 1.611.769-.862-1.59 1.213-1.328zm2.92 6.847h-1.777l-.55-1.729-.549 1.729h-1.778l1.439 1.068-.55 1.728 1.438-1.068 1.439 1.068-.55-1.728 1.438-1.068zm1.575 7.288l-1.745-.347-.217-1.803-.861 1.589-1.745-.347 1.212 1.33-.862 1.588 1.611-.768 1.213 1.33-.217-1.804 1.611-.768zm.195 7.467l-1.648-.68.124-1.813-1.142 1.392-1.649-.681.942 1.54-1.143 1.393 1.726-.44.942 1.541.124-1.813 1.725-.44zm-1.208 7.365l-1.49-.99.46-1.755-1.382 1.144-1.491-.99.637 1.696-1.381 1.144 1.775-.095.637 1.696.46-1.755 1.775-.095zm-2.554 6.993l-1.279-1.262.78-1.633-1.57.853-1.28-1.262.31 1.79-1.57.852 1.76.253.309 1.79.78-1.634 1.76.253zm-56.895-3.116c1.8-2.823 5.22-7.29 7.092-9.029.181-.168.455.049.343.27l-1.58 3.127a2.912 2.912 0 01-1.473 1.378 2.898 2.898 0 00-1.228.975l-2.642 3.643a.324.324 0 01-.062.064c-.278.217-.642-.128-.45-.428zm15.519-13.832c-.433.443-1.032 1.358-1.4 1.947-.223.358-.553.63-.942.78-.42.16-.77.467-.993.864l-2.004 3.598c-.112.2.03.45.257.45.228 0 .37.254.254.454l-1.168 2.022c-.25.432-.38.925-.38 1.427 0 .396-.083.787-.24 1.148l-1.1 2.508 2-2.043c.232-.236.363-.558.363-.892 0-.236.065-.468.187-.669l1.18-1.926a.705.705 0 01.6-.34.71.71 0 00.603-.342l1.856-3.06c.242-.397.326-.874.236-1.333l-.166-.851a1.883 1.883 0 01.037-.88l.82-2.862zm8.554-6.276l.877 2.737a1.974 1.974 0 01-.145 1.543 1.975 1.975 0 00-.162 1.485l1.396 4.87c.17.597.604 1.076 1.172 1.297.482.188.87.563 1.08 1.043l4.385 9.988c.246.56.792.921 1.393.921a.024.024 0 00.021-.032l-1.37-3.358a.77.77 0 01.161-.829.77.77 0 00.088-.964l-1.336-1.998a5.498 5.498 0 01-.755-1.691l-.506-1.974a.898.898 0 01.225-.85.9.9 0 00.134-1.077l-6.478-11.194c-.06-.104-.217-.032-.18.083zm5.699 3.222l4.47 8.835c.273.54.626 1.032 1.046 1.462l2.149 2.194a.971.971 0 00.694.294c.291 0 .567.132.754.36l4.823 5.911-4.151-7.223a.454.454 0 01-.038-.366.452.452 0 00-.137-.485l-3.532-2.967a1.266 1.266 0 01-.449-.97v-.399a1.27 1.27 0 00-.33-.857l-5.299-5.79zm9.225 6.464l3.105 3.082c.357.355.598.814.69 1.314a2.5 2.5 0 00.389.95l1.913 2.82c.06.089-.057.19-.132.113l-4.712-4.813a1.527 1.527 0 01-.433-1.068v-.234c0-.28-.076-.553-.219-.79l-.752-1.25c-.06-.1.07-.205.151-.124z" fill="#25213F"/></svg>