<?xml version="1.0" encoding="utf-8"?>
<!-- Generator: Adobe Illustrator 22.1.0, SVG Export Plug-In . SVG Version: 6.00 Build 0)  -->
<svg version="1.1" id="Слой_1" xmlns="http://www.w3.org/2000/svg" xmlns:xlink="http://www.w3.org/1999/xlink" x="0px" y="0px"
	 viewBox="0 0 130 18" style="enable-background:new 0 0 130 18;" xml:space="preserve">
<style type="text/css">
	.st0{fill:#242424;}
</style>
<path id="Ultra-HD-4K" class="st0" d="M0,1.5v9.3c0,1.7,0.2,3.8,1.5,5.3c1,1.1,2.8,1.9,5.3,1.9c2.2,0,3.9-0.6,5.2-2
	c1.7-1.8,1.8-3.5,1.8-5.2V1.5H9.7v9.2c0,0.9,0,2.1-0.9,2.9c-0.5,0.4-1.2,0.7-1.9,0.7s-1.5-0.3-2-0.8c-0.8-0.8-0.8-1.8-0.8-2.5V1.5H0
	z M16.8,0v17.6h3.8V0H16.8z M29.6,10V6.8h-2.2V3.3h-3.8v3.6h-1.2V10h1.2v7.6h3.8V10H29.6z M31,17.6h3.8V13c0-0.6,0-1.7,0.9-2.5
	c0.5-0.5,1.2-0.6,1.7-0.6c0.9,0,1.5,0.3,1.6,0.4V6.7c-0.5,0-0.7,0-0.8,0c-0.7,0-1.4,0.1-2,0.4c-0.6,0.3-1.1,0.8-1.5,1.5V6.8H31V17.6
	z M49,7.9v-1h3.8v10.8H49v-1.2c-0.9,1.2-2.3,1.5-3.3,1.5c-1.1,0-2.5-0.3-3.8-1.7c-1-1.1-1.5-2.3-1.5-4c0-2,0.8-3.5,1.6-4.3
	c0.9-0.9,2.3-1.5,3.8-1.5C47.5,6.5,48.5,7.4,49,7.9z M46.6,9.8c-0.5,0-1.1,0.2-1.7,0.7c-0.5,0.5-0.8,1.2-0.8,1.8
	c0,0.6,0.3,1.3,0.7,1.8c0.4,0.4,1.1,0.7,1.7,0.7c0.6,0,1.2-0.3,1.7-0.8c0.3-0.3,0.7-0.9,0.7-1.7c0-0.5-0.1-1.2-0.7-1.8
	C48,10.1,47.4,9.8,46.6,9.8z M65.4,1.5h-4.1v16.1h4.1v-6.5h5.9v6.5h4.1V1.5h-4.1v6h-5.9V1.5z M84.6,17.6h-5.8V1.5h5.4
	c1.6,0,4.3,0.2,6.3,2.2c1.9,1.8,2.2,4.1,2.2,5.9c0,2.1-0.5,4-2.1,5.6C89.4,16.5,87.3,17.6,84.6,17.6z M82.9,5.1v9h0.8
	c1,0,2.4-0.1,3.5-1.2c0.5-0.5,1.2-1.5,1.2-3.3c0-1.5-0.5-2.8-1.2-3.5c-1-0.9-2.3-1-3.3-1H82.9z M111,1.5v9.9h1.9v3.2H111v3h-3.8v-3
	h-7.7v-2.7l6.1-10.4H111z M103.4,11.4h3.7V4.8L103.4,11.4z M119.3,1.5h-4.1v16.1h4.1v-7l5.4,7h5.3l-6.9-8.5l6.3-7.6h-5.1l-5,6.7V1.5
	z"/>
</svg>
